<svg xmlns="http://www.w3.org/2000/svg" viewBox="0 0 100 100" preserveAspectRatio="xMidYMid" width="200" height="200" style="shape-rendering: auto; display: block; background: rgb(255, 255, 255);"><g data-idx="1"><g transform="matrix(1,0,0,1,20,50)" data-idx="2">
<circle fill="#4a6d7e" r="6" cy="0" cx="0" data-idx="3" transform="matrix(0.9913813471794128,0,0,0.9913813471794128,0,0)">
  
</circle>
</g><g transform="matrix(1,0,0,1,40,50)" data-idx="5">
<circle fill="#4a6d7e" r="6" cy="0" cx="0" data-idx="6" transform="matrix(0.7736097574234009,0,0,0.7736097574234009,0,0)">
  
</circle>
</g><g transform="matrix(1,0,0,1,60,50)" data-idx="8">
<circle fill="#4a6d7e" r="6" cy="0" cx="0" data-idx="9" transform="matrix(0.4287511110305786,0,0,0.4287511110305786,0,0)">
  
</circle>
</g><g transform="matrix(1,0,0,1,80,50)" data-idx="11">
<circle fill="#4a6d7e" r="6" cy="0" cx="0" data-idx="12" transform="matrix(0.11359700560569763,0,0,0.11359700560569763,0,0)">
  
</circle>
</g><g data-idx="14"></g></g><text data-watermark="true" text-anchor="middle" dominant-baseline="middle" stroke-opacity="0.1" fill="black" fill-opacity="0.1" stroke="white" stroke-width="1" font-size="5.0" x="50" y="50" data-idx="15" style="opacity: 1; font-size: 5px;">LOADING.IO</text></svg>